<svg width="72" height="72" viewBox="0 0 72 72" fill="none" xmlns="http://www.w3.org/2000/svg">
<rect width="72" height="72" rx="36" fill="#FFEFD1"/>
<rect x="12" y="12" width="48" height="48" rx="24" fill="#FF751A"/>
<path d="M45.2654 44.9971H26.7324C26.3751 44.9971 26.045 44.8065 25.8664 44.4971C25.6878 44.1877 25.6878 43.8065 25.8664 43.4971L35.1324 27.4971C35.3112 27.1882 35.641 26.998 35.9979 26.998C36.3548 26.998 36.6846 27.1882 36.8634 27.4971L46.1294 43.4971C46.3079 43.8064 46.308 44.1874 46.1297 44.4967C45.9513 44.806 45.6215 44.9968 45.2644 44.9971H45.2654ZM34.9994 39.9971V41.9971H35.9324H35.9974H36.0624H36.9974V39.9971H34.9994ZM34.9994 32.9971V37.9971H36.9994V32.9971H34.9994Z" fill="white"/>
</svg>
